 <svg  version="1.0" xmlns="http://www.w3.org/2000/svg"  width="300.000000pt" height="295.000000pt" viewBox="0 0 300.000000 295.000000"  preserveAspectRatio="xMidYMid meet">  <g transform="translate(0.000000,295.000000) scale(0.100000,-0.100000)" fill="#088178" stroke="none"> <path d="M1465 2705 c-5 -2 -22 -6 -37 -9 -64 -14 -128 -106 -128 -185 0 -53 38 -121 87 -155 37 -25 52 -30 107 -30 53 0 72 5 104 26 105 70 119 211 29 298 -47 47 -116 70 -162 55z m128 -58 c47 -35 72 -101 62 -162 -5 -35 -16 -56 -45 -85 -129 -129 -338 15 -266 183 39 93 167 126 249 64z"/> <path d="M822 2483 c-26 -5 -66 -63 -84 -122 -7 -23 -23 -46 -38 -54 -17 -10 -59 -80 -129 -214 -58 -109 -133 -252 -168 -317 -35 -66 -63 -121 -63 -122 0 -1 16 2 37 6 130 30 355 19 528 -25 216 -54 417 -187 520 -343 40 -60 41 -52 4 19 -64 119 -249 289 -398 363 -145 74 -337 107 -490 86 -46 -6 -85 -10 -87 -8 -2 2 59 123 134 268 l138 265 62 3 c34 2 62 1 62 -1 0 -3 -168 -342 -198 -398 -1 -3 33 -9 76 -13 152 -12 295 -67 419 -160 140 -105 263 -279 318 -446 15 -44 20 -51 25 -35 56 151 107 243 188 341 143 174 347 282 564 300 43 4 77 10 76 13 -2 3 -47 93 -101 200 -53 107 -95 196 -93 198 4 5 117 6 120 2 1 -2 33 -65 71 -139 38 -74 99 -193 137 -264 37 -71 66 -131 64 -133 -2 -3 -41 1 -87 7 -153 21 -345 -12 -490 -86 -152 -76 -337 -246 -397 -365 -18 -35 -25 -53 -15 -39 167 232 400 361 728 400 99 12 260 7 338 -10 20 -4 37 -7 37 -6 0 2 -26 52 -58 112 -32 60 -108 203 -168 317 -79 152 -117 213 -137 225 -15 9 -30 28 -33 42 -8 38 -42 106 -61 121 -22 19 -150 16 -238 -6 -167 -41 -332 -172 -410 -327 l-40 -77 -40 77 c-77 149 -217 266 -375 316 -74 23 -203 38 -248 29z m212 -49 c135 -35 282 -139 355 -252 43 -67 79 -169 88 -249 l7 -68 8 63 c16 140 78 262 185 363 108 101 235 154 398 163 l79 5 33 -55 c18 -30 33 -57 33 -60 0 -2 -33 -4 -73 -4 -93 0 -209 -29 -296 -75 -205 -108 -322 -308 -356 -610 -12 -105 20 -27 40 95 2 14 4 25 5 25 1 0 3 9 5 19 2 10 11 42 20 70 71 224 223 370 441 426 96 25 96 25 89 -2 -4 -16 19 -74 75 -187 44 -91 79 -170 76 -176 -2 -7 -30 -15 -63 -18 -261 -28 -523 -230 -667 -514 -14 -29 -28 -53 -30 -53 -2 0 -23 35 -46 78 -78 143 -189 273 -300 349 -111 75 -289 143 -377 143 -19 0 -36 6 -39 13 -3 8 32 87 76 178 56 113 79 171 75 187 -7 27 -7 27 89 2 204 -52 360 -196 433 -400 12 -33 50 -192 61 -253 4 -28 22 -48 22 -25 0 46 -33 215 -53 275 -94 276 -329 453 -604 453 l-74 0 32 60 33 59 80 -5 c44 -2 107 -11 140 -20z"/> <path d="M615 2268 c-36 -42 -418 -597 -483 -702 -29 -47 -32 -56 -21 -74 18 -29 36 -31 130 -16 86 14 262 28 244 20 -5 -3 -55 -17 -110 -31 -124 -33 -232 -77 -268 -111 -16 -14 -26 -28 -23 -31 3 -3 47 13 99 35 401 177 855 135 1247 -114 14 -9 -5 13 -42 48 -206 195 -519 282 -907 250 -134 -11 -296 -34 -345 -49 -16 -4 -12 4 16 43 49 68 469 691 497 737 30 50 11 47 -34 -5z"/> <path d="M2311 2288 c11 -22 283 -426 458 -681 51 -74 75 -116 64 -113 -42 13 -197 35 -322 47 -356 32 -646 -33 -861 -191 -66 -49 -161 -141 -110 -107 365 245 841 290 1243 117 54 -23 100 -40 103 -37 10 10 -41 48 -104 78 -35 16 -118 45 -185 64 l-122 35 85 -5 c47 -3 123 -11 169 -19 47 -8 92 -11 100 -8 28 10 40 34 30 60 -10 26 -352 531 -457 675 -35 48 -73 92 -84 98 -18 10 -19 9 -7 -13z"/> <path d="M305 1340 c-107 -12 -204 -31 -210 -40 -11 -18 34 -19 162 -5 323 36 663 8 1058 -86 l171 -41 169 41 c393 94 735 122 1058 86 127 -14 167 -13 167 4 0 9 -100 27 -225 41 -291 32 -748 -16 -1086 -115 l-80 -23 -107 29 c-138 37 -327 75 -472 94 -139 19 -494 27 -605 15z"/> <path d="M1960 957 c-3 -2 -329 -7 -725 -11 -397 -4 -724 -11 -728 -15 -5 -5 -12 -137 -14 -293 -6 -278 -5 -283 15 -302 21 -18 56 -19 983 -18 916 1 963 2 980 19 15 16 17 45 20 233 4 280 2 333 -14 353 -11 15 -35 18 -177 21 -91 2 -203 7 -250 11 -47 4 -87 5 -90 2z m503 -133 c-2 -114 -22 -190 -81 -312 -39 -80 -110 -162 -141 -162 -11 0 -29 12 -40 26 l-21 27 40 43 c39 43 49 64 30 64 -15 0 -55 86 -84 180 -24 79 -25 86 -9 98 49 35 78 6 117 -118 l33 -105 21 70 c11 39 24 87 27 107 9 47 27 62 65 54 l30 -5 0 59 0 60 -171 0 c-148 0 -170 -2 -159 -14 6 -8 10 -25 8 -38 -3 -20 -8 -23 -45 -20 -53 4 -83 -11 -83 -43 0 -24 3 -25 55 -25 50 0 55 -2 61 -25 10 -38 -11 -55 -68 -55 l-49 0 3 -105 c3 -102 3 -104 -20 -110 -27 -7 -64 3 -74 19 -11 17 -10 296 2 336 5 19 22 45 37 57 l28 23 -720 0 -720 0 -2 -75 c0 -41 1 -75 3 -75 3 0 17 8 31 18 20 12 48 17 103 17 68 0 81 -3 112 -27 45 -34 62 -83 55 -155 -10 -99 -77 -153 -174 -139 -43 6 -45 5 -39 -17 3 -12 6 -39 6 -59 l0 -38 309 0 c210 0 312 -3 316 -11 11 -17 -673 -8 -705 10 -23 13 -24 13 -11 -2 12 -15 11 -17 -3 -17 -14 0 -16 30 -16 295 l0 296 973 -3 972 -3 -2 -101z m-589 58 c2 -4 0 -29 -5 -54 l-10 -47 -39 25 c-73 49 -162 44 -234 -11 l-45 -34 -29 28 c-72 73 -239 64 -301 -14 l-18 -24 -24 26 c-69 75 -224 86 -289 22 -34 -34 -41 -35 -65 -9 -33 37 -98 53 -180 46 -71 -6 -75 -6 -75 13 0 11 8 24 18 30 21 12 1288 15 1296 3z m550 -9 c8 -21 0 -31 -33 -38 -34 -7 -54 -28 -73 -75 l-15 -35 -21 42 c-21 41 -64 73 -97 73 -18 0 -20 21 -3 38 20 20 235 15 242 -5z m-1329 -87 c51 -21 65 -59 65 -168 0 -51 -4 -98 -8 -105 -24 -39 -152 -56 -216 -29 -58 24 -83 86 -55 138 13 25 67 48 116 49 21 0 46 4 56 7 15 6 16 10 4 26 -13 17 -46 21 -137 13 -22 -2 -25 2 -25 28 0 25 5 32 35 42 48 16 124 16 165 -1z m362 -6 c29 -13 44 -27 49 -44 12 -48 0 -299 -16 -323 -25 -38 -82 -63 -144 -63 -91 0 -136 33 -116 85 9 23 11 23 37 10 34 -18 104 -19 125 -2 8 6 18 22 21 34 5 22 3 23 -46 17 -60 -6 -108 14 -140 58 -26 35 -28 129 -4 174 34 66 149 93 234 54z m316 6 c46 -20 78 -58 84 -103 7 -53 -7 -62 -116 -76 -50 -6 -91 -14 -91 -17 0 -13 35 -37 61 -44 15 -3 47 1 73 8 43 13 47 13 56 -5 24 -44 -25 -79 -108 -78 -104 1 -168 53 -179 146 -15 127 104 219 220 169z m697 -287 l0 -159 -101 0 c-64 0 -98 4 -94 10 3 6 44 10 91 10 l84 0 0 156 c0 101 3 153 10 149 6 -4 10 -70 10 -166z m-304 74 l36 -83 -31 -47 c-17 -25 -31 -50 -31 -55 0 -4 -138 -8 -306 -8 l-306 0 7 43 c14 79 15 80 64 47 24 -16 59 -32 78 -36 56 -11 131 1 165 26 l30 22 21 -20 c32 -30 70 -36 105 -18 37 19 42 32 42 114 0 76 5 88 40 95 45 8 50 3 86 -80z m-947 -77 c9 -10 8 -16 -4 -26 -8 -7 -20 -30 -25 -51 l-11 -39 -252 2 c-239 3 -252 4 -252 22 0 14 12 22 47 31 40 10 63 22 113 59 8 6 20 1 34 -13 34 -34 84 -51 151 -51 70 0 115 16 149 54 28 30 34 31 50 12z m1211 -50 c0 -52 -9 -66 -41 -66 -16 0 -29 3 -29 6 0 13 53 94 61 94 5 0 9 -15 9 -34z m-220 -96 c0 -6 -137 -10 -391 -10 -257 0 -388 3 -384 10 4 6 145 10 391 10 249 0 384 -4 384 -10z"/> <path d="M624 707 c-3 -8 -4 -45 -2 -83 l3 -69 35 -3 c50 -4 71 15 77 71 8 66 -14 97 -68 97 -24 0 -42 -5 -45 -13z m71 -58 c5 -14 1 -27 -9 -37 -15 -15 -16 -13 -16 21 0 40 15 50 25 16z"/> <path d="M988 603 c-38 -10 -21 -63 20 -63 43 0 59 11 59 41 0 26 -3 29 -31 28 -17 -1 -38 -3 -48 -6z"/> <path d="M1327 707 c-26 -18 -33 -81 -13 -112 13 -20 25 -25 56 -25 l40 0 0 75 0 75 -33 0 c-18 0 -41 -6 -50 -13z"/> <path d="M1683 720 c-21 -8 -49 -47 -41 -56 3 -2 32 1 66 7 54 10 60 13 52 29 -15 28 -40 35 -77 20z"/> </g> </svg> 